<mxfile host="app.diagrams.net" modified="2023-04-17T18:39:01.340Z" agent="Mozilla/5.0 (Windows NT 10.0; Win64; x64) AppleWebKit/537.36 (KHTML, like Gecko) Chrome/112.0.0.0 Safari/537.36" etag="vbrtnZvk2zskB_9peyHM" version="21.1.8" type="github">
  <diagram name="Page-1" id="22EeoV_L3t1J-U9AYu5u">
    <mxGraphModel dx="1185" dy="658" grid="1" gridSize="10" guides="1" tooltips="1" connect="1" arrows="1" fold="1" page="1" pageScale="1" pageWidth="850" pageHeight="1100" math="0" shadow="0">
      <root>
        <mxCell id="0" />
        <mxCell id="1" parent="0" />
        <mxCell id="R6EbikbRbjLmYFWWzpP8-14" value="Auth Journey" style="swimlane;childLayout=stackLayout;resizeParent=1;resizeParentMax=0;horizontal=0;startSize=20;horizontalStack=0;html=1;" vertex="1" parent="1">
          <mxGeometry x="40" y="90" width="760" height="240" as="geometry" />
        </mxCell>
        <mxCell id="R6EbikbRbjLmYFWWzpP8-15" value="Frontend" style="swimlane;startSize=20;horizontal=0;html=1;" vertex="1" parent="R6EbikbRbjLmYFWWzpP8-14">
          <mxGeometry x="20" width="740" height="120" as="geometry" />
        </mxCell>
        <mxCell id="R6EbikbRbjLmYFWWzpP8-19" value="" style="ellipse;whiteSpace=wrap;html=1;aspect=fixed;fillColor=#60a917;fontColor=#ffffff;strokeColor=#2D7600;" vertex="1" parent="R6EbikbRbjLmYFWWzpP8-15">
          <mxGeometry x="40" y="40" width="40" height="40" as="geometry" />
        </mxCell>
        <mxCell id="R6EbikbRbjLmYFWWzpP8-20" value="" style="endArrow=classic;html=1;rounded=0;" edge="1" parent="R6EbikbRbjLmYFWWzpP8-15">
          <mxGeometry width="50" height="50" relative="1" as="geometry">
            <mxPoint x="80" y="60" as="sourcePoint" />
            <mxPoint x="120" y="60" as="targetPoint" />
          </mxGeometry>
        </mxCell>
        <mxCell id="R6EbikbRbjLmYFWWzpP8-21" value="Input Email/Pasword" style="rounded=1;whiteSpace=wrap;html=1;fontSize=11;" vertex="1" parent="R6EbikbRbjLmYFWWzpP8-15">
          <mxGeometry x="120" y="40" width="90" height="40" as="geometry" />
        </mxCell>
        <mxCell id="R6EbikbRbjLmYFWWzpP8-22" value="Backend" style="swimlane;startSize=20;horizontal=0;html=1;" vertex="1" parent="R6EbikbRbjLmYFWWzpP8-14">
          <mxGeometry x="20" y="120" width="740" height="120" as="geometry" />
        </mxCell>
        <mxCell id="R6EbikbRbjLmYFWWzpP8-28" style="edgeStyle=orthogonalEdgeStyle;rounded=0;orthogonalLoop=1;jettySize=auto;html=1;entryX=0;entryY=0.5;entryDx=0;entryDy=0;" edge="1" parent="R6EbikbRbjLmYFWWzpP8-22" source="R6EbikbRbjLmYFWWzpP8-25" target="R6EbikbRbjLmYFWWzpP8-27">
          <mxGeometry relative="1" as="geometry" />
        </mxCell>
        <mxCell id="R6EbikbRbjLmYFWWzpP8-25" value="Validate Request Format" style="rounded=1;whiteSpace=wrap;html=1;fontSize=11;" vertex="1" parent="R6EbikbRbjLmYFWWzpP8-22">
          <mxGeometry x="120" y="40" width="90" height="40" as="geometry" />
        </mxCell>
        <mxCell id="R6EbikbRbjLmYFWWzpP8-27" value="Validate Request Format" style="rounded=1;whiteSpace=wrap;html=1;fontSize=11;" vertex="1" parent="R6EbikbRbjLmYFWWzpP8-22">
          <mxGeometry x="250" y="40" width="90" height="40" as="geometry" />
        </mxCell>
        <mxCell id="R6EbikbRbjLmYFWWzpP8-26" style="edgeStyle=orthogonalEdgeStyle;rounded=0;orthogonalLoop=1;jettySize=auto;html=1;entryX=0.5;entryY=0;entryDx=0;entryDy=0;" edge="1" parent="R6EbikbRbjLmYFWWzpP8-14" source="R6EbikbRbjLmYFWWzpP8-21" target="R6EbikbRbjLmYFWWzpP8-25">
          <mxGeometry relative="1" as="geometry" />
        </mxCell>
      </root>
    </mxGraphModel>
  </diagram>
</mxfile>
